<?xml version="1.0" standalone="no"?>
<!DOCTYPE svg PUBLIC "-//W3C//DTD SVG 20010904//EN"
 "http://www.w3.org/TR/2001/REC-SVG-20010904/DTD/svg10.dtd">
<svg version="1.0" xmlns="http://www.w3.org/2000/svg"
 width="196.000000pt" height="57.000000pt" viewBox="0 0 196.000000 57.000000"
 preserveAspectRatio="xMidYMid meet">
<metadata>
Created by potrace 1.10, written by Peter Selinger 2001-2011
</metadata>
<g transform="translate(0.000000,57.000000) scale(0.050000,-0.050000)">
<path d="M1068 866 l-142 -8 -13 -152 c-7 -84 -13 -224 -13 -312 l0 -159 75
12 c41 7 131 13 200 13 l125 0 0 70 0 70 -130 0 c-205 0 -188 85 20 105 53 4
60 13 62 72 l2 67 -99 -13 c-94 -12 -98 -11 -92 33 6 39 22 48 112 59 151 18
169 28 161 92 -7 62 -16 64 -268 51z"/>
<path d="M1520 861 l-150 -11 -6 -77 -7 -77 82 14 82 14 -13 -192 c-11 -154
-9 -192 13 -192 21 0 22 -5 3 -24 -45 -45 -27 -76 44 -76 l68 0 13 195 c7 107
15 218 17 245 3 40 16 51 67 56 48 5 66 18 76 56 23 93 24 93 -289 69z"/>
<path d="M2028 865 l-143 -7 -12 -104 c-7 -57 -13 -197 -13 -312 l0 -207 75
12 c41 7 131 13 200 13 l125 0 0 70 0 70 -130 0 c-205 0 -188 85 20 105 53 4
60 13 62 72 l2 67 -97 -13 c-94 -12 -97 -11 -97 38 0 45 9 51 68 51 152 0 192
19 192 93 0 61 -5 67 -55 63 -30 -2 -119 -7 -197 -11z"/>
<path d="M2443 829 c-90 -75 -158 -418 -92 -465 10 -8 29 -32 41 -54 89 -161
326 -22 358 210 40 290 -128 460 -307 309z m166 -114 c20 -66 27 -175 11 -175
-7 0 -21 -34 -31 -75 -36 -145 -99 -103 -98 65 2 144 30 230 77 230 15 0 33
-20 41 -45z"/>
<path d="M3007 865 c-192 -8 -177 20 -199 -372 l-14 -253 73 0 c77 0 110 52
87 140 -13 49 12 65 116 79 73 10 81 17 86 76 l7 65 -103 0 c-100 0 -102 1
-96 55 3 30 19 56 36 59 239 31 223 24 216 91 -7 71 3 68 -209 60z"/>
<path d="M3315 856 c-68 -24 -69 -12 16 -248 48 -132 69 -223 66 -277 -6 -80
-6 -81 67 -87 l73 -6 -11 116 c-6 64 -4 109 5 101 11 -11 168 322 169 360 0 3
-16 5 -36 5 -20 0 -47 11 -60 24 -18 18 -35 -5 -76 -95 l-53 -119 -38 90 c-68
164 -62 156 -122 136z"/>
<path d="M744 846 c-33 -7 -58 -36 -86 -103 -21 -51 -46 -111 -55 -133 -14
-32 -24 -14 -55 90 l-39 130 -84 6 -85 6 0 -106 c0 -58 -6 -155 -13 -214 -11
-87 -8 -105 13 -92 17 10 21 8 12 -6 -33 -54 -30 -184 4 -184 102 1 124 22
126 117 l1 93 25 -70 c35 -95 82 -100 134 -11 55 93 63 90 55 -24 l-7 -95 76
-6 75 -6 -5 304 c-6 313 -8 319 -92 304z"/>
</g>
</svg>
