<svg class="svg-icon" style="width: 1em; height: 1em;vertical-align: middle;fill: currentColor;overflow: hidden;" viewBox="0 0 1024 1024" version="1.1" xmlns="http://www.w3.org/2000/svg"><path d="M774.411378 774.957511c-2.292622 0.574578-2.292622 0.574578-3.453156 0.762311-2.588444 0.312889-2.588444 0.312889-3.413333 0.341334-0.750933 0.034133-1.604267 0.056889-2.798933 0.068266-3.925333 0.056889-13.1584 0.079644-32.398223 0.079645v-56.888889c10.820267 0 18.454756-0.005689 23.665778-0.022756l4.579556-0.398222c87.893333-7.68 157.320533-79.456711 161.490489-168.504889 4.608-98.133333-71.224889-181.424356-169.358223-186.0096-26.703644-1.257244-52.929422 3.601067-77.579377 14.051556 0.182044-0.073956-0.238933 0.125156-1.211734 0.648533-2.0992 1.137778-4.613689 2.673778-7.492266 4.664889-8.795022 6.087111-18.289778 14.4896-28.000712 25.577244l-42.797511-37.4784c12.845511-14.665956 25.850311-26.180267 38.439823-34.884266 4.608-3.185778 8.897422-5.814044 12.8-7.924623 2.633956-1.422222 4.744533-2.429156 6.155377-3.0208 32.301511-13.693156 67.015111-20.1216 102.343111-18.466133 129.518933 6.058667 229.603556 115.996444 223.527823 245.498311-5.3248 113.743644-91.278222 206.148267-202.052267 221.252267-0.762311 0.312889-1.450667 0.455111-2.446222 0.654222z"  /><path d="M652.435911 292.744533l-47.172267 31.789511a258.332444 258.332444 0 0 0-60.632177-63.277511c-43.656533-32.278756-96.142222-49.959822-151.301689-49.959822-140.930844 0-255.186489 114.244267-255.186489 255.1808 0 140.276622 113.618489 252.302222 255.186489 252.302222v56.888889c-172.805689 0-312.075378-137.3184-312.075378-309.191111 0-172.356267 139.719111-312.069689 312.075378-312.069689 67.475911 0 131.777422 21.668978 185.116444 61.098667a315.221333 315.221333 0 0 1 73.989689 77.238044z"  /><path d="M541.354667 811.440356h56.888889v46.939022h-56.888889v-46.933334z m47.928889-123.778845c29.354667-18.540089 41.107911-36.369067 39.6288-54.289067-2.816-34.059378-20.832711-49.948444-60.854045-51.655111-46.842311-1.991111-71.520711 21.310578-71.520711 65.848889h-56.888889c0-77.095822 51.837156-126.048711 130.827378-122.680889 67.697778 2.872889 109.869511 40.078222 115.131733 103.805156 3.4816 42.126222-20.343467 78.273422-66.070755 107.144533-15.399822 9.619911-20.8384 18.130489-20.394667 27.318045l0.034133 0.682666v13.869511h-56.888889v-12.572444c-1.234489-31.550578 15.803733-57.992533 46.990223-77.471289z"  /></svg>